<?xml version="1.0" encoding="utf-8"?>
<!-- Generator: Adobe Illustrator 28.0.0, SVG Export Plug-In . SVG Version: 6.00 Build 0)  -->
<svg version="1.1" id="Ebene_1" xmlns="http://www.w3.org/2000/svg" xmlns:xlink="http://www.w3.org/1999/xlink" x="0px" y="0px"
	 viewBox="0 0 800 400" style="enable-background:new 0 0 800 400;" xml:space="preserve">
<style type="text/css">
	.st0{fill:#A47E48;}
	.st1{fill:#E53516;}
</style>
<g>
	<path class="st0" d="M271.2,309.6c-3.5-1.6-4.9-2.6-4.9-4.5c0-2.1,1.6-3.1,3.8-3.1c3.3,0,4.4,1.3,5.3,4.7h2v-6.4
		c-1.4-0.3-4.3-0.8-6.9-0.8c-5.5,0-9.7,2.8-9.7,7.5c0,4.2,2.9,6.1,7.1,7.9c3.8,1.6,5.3,2.7,5.3,4.6c0,2.4-1.5,3.7-4.1,3.7
		c-3.9,0-5-2-6-5.9h-2.1v7.1c1.8,0.8,5.1,1.5,7.9,1.5c5.5,0,9.9-2.7,9.9-7.9C278.7,313.7,276.4,311.9,271.2,309.6"/>
	<path class="st0" d="M295.8,322.9c-4.1,0-6.4-4.1-6.4-11.3c0-5.8,2.4-9.4,7-9.4c3.9,0,5,1.6,6,5.2h2.1v-6.8c-2-0.7-4.9-1.2-7-1.2
		c-8.4,0-14.8,4-14.8,13.6c0,8.4,5.5,12.7,12.9,12.7c2.8,0,5.6-0.3,8.6-1.5l0.4-7l-2.1-0.3C301.1,321.2,300.3,322.9,295.8,322.9"/>
	<path class="st0" d="M332.9,320v-14.9c0-1.7,0.1-2.5,0.8-3c0.6-0.4,1.3-0.7,2.3-1v-1.3h-11.9v1.3c0.9,0.3,1.7,0.6,2.2,0.9
		c0.6,0.5,0.7,1.6,0.7,3v5.4h-9.3v-5.4c0-1.4,0-2.4,0.7-3c0.5-0.4,1.3-0.7,2.2-0.9v-1.3h-11.9v1.3c1.1,0.3,1.8,0.6,2.4,1
		c0.6,0.4,0.8,1.2,0.8,3V320c0,1.7-0.1,2.6-0.8,3c-0.6,0.4-1.4,0.7-2.4,1v1.4h12.1V324c-0.9-0.3-1.7-0.6-2.3-0.9
		c-0.7-0.5-0.7-1.6-0.7-3v-6h9.3v6c0,1.4,0,2.5-0.7,3c-0.5,0.4-1.3,0.7-2.3,0.9v1.4h12.1V324c-1-0.3-1.8-0.6-2.4-1
		C333,322.6,332.9,321.8,332.9,320"/>
	<path class="st0" d="M361.9,320.4l-7.6-20.8h-5l-7.9,20.8c-0.3,0.9-0.8,2-1.3,2.4c-0.5,0.5-1.1,0.8-2.3,1.2v1.4h9.6V324
		c-1.3-0.4-2.5-0.7-2.5-1.8c0-0.7,0.3-1.6,0.7-2.7l0.4-1.3h8.9l0.5,1.3c0.4,1.1,0.7,2.2,0.7,2.7c0,1-1.1,1.4-2.4,1.8v1.4h11.7V324
		c-1.1-0.4-1.7-0.7-2.2-1.2C362.7,322.4,362.2,321.3,361.9,320.4 M347.3,315l3.3-9.5l3.3,9.5H347.3z"/>
	<path class="st0" d="M382.8,301.2c0.9,0.3,1.7,0.6,2.2,1c0.6,0.5,0.8,1.2,0.8,3v11.3c0,4.3-1.5,5.9-5.7,5.9c-1.9,0-3.1-0.6-4-1.7
		c-0.6-0.8-0.9-2.5-0.9-3.9v-11.6c0-1.7,0.1-2.4,0.8-3c0.5-0.4,1.2-0.7,2.2-1v-1.3h-12.2v1.3c1,0.3,1.7,0.6,2.3,1
		c0.6,0.4,0.8,1.2,0.8,3v12.5c0,2.2,0.6,4.2,1.6,5.5c1.8,2,5.1,2.7,8.7,2.7c4.4,0,7.6-1.3,9-3.6c0.9-1.4,1.4-3.3,1.4-5.9v-11.2
		c0-1.7,0.2-2.5,0.8-3c0.6-0.4,1.3-0.7,2.3-1v-1.3h-10V301.2z"/>
	<path class="st0" d="M426,320.1l-0.9-14.9c-0.1-1.7,0-2.5,0.7-2.9c0.6-0.4,1.3-0.7,2.4-1v-1.3h-9.7l-6,15.8l-5.9-15.8h-9.8v1.4
		c1.1,0.3,1.7,0.6,2.4,0.9c0.6,0.4,0.8,1.2,0.7,2.9l-1,14.9c-0.1,1.7-0.3,2.5-0.9,2.9c-0.6,0.4-1.3,0.7-2.4,1v1.4h9.9V324
		c-1.1-0.3-1.7-0.6-2.3-1c-0.8-0.6-0.8-1.7-0.7-2.9l0.8-13.8l7.3,19.1h2l7.3-19.2l0.8,14c0,1.3,0.1,2.4-0.7,2.9
		c-0.6,0.4-1.3,0.7-2.4,1v1.4h11.8V324c-1.1-0.3-1.7-0.6-2.4-1C426.3,322.6,426.1,321.8,426,320.1"/>
	<path class="st0" d="M448.6,311.4c2.7-1,4.7-3.1,4.7-5.9c0-2.8-1.7-4.4-3.7-5.1c-1.8-0.7-4.7-0.8-6.6-0.8c-1.7,0-6.1,0.1-10.2,0.3
		v1.3c1.1,0.3,1.8,0.7,2.4,1c0.6,0.4,0.8,1.2,0.8,2.9V320c0,1.7-0.1,2.6-0.8,3c-0.6,0.4-1.4,0.7-2.4,1v1.4h12c6,0,10.2-3,10.2-7.8
		C455,314.5,452.5,312,448.6,311.4 M441.7,302h0.9c3.1,0,4.6,1.1,4.6,4.1c0,3.1-0.9,4.5-4.1,4.5h-1.5V302z M444.9,323.1
		c-2.6,0-3.1-0.7-3.1-3.3v-6.7h1.6c4,0,5.4,1.8,5.4,5.1C448.7,321.3,447.5,323.1,444.9,323.1"/>
	<path class="st0" d="M474.7,301.2c0.9,0.3,1.7,0.6,2.2,1c0.6,0.5,0.8,1.2,0.8,3v11.3c0,4.3-1.5,5.9-5.7,5.9c-1.9,0-3.1-0.6-4-1.7
		c-0.6-0.8-0.9-2.5-0.9-3.9v-11.6c0-1.7,0.1-2.4,0.8-3c0.5-0.4,1.2-0.7,2.2-1v-1.3h-12.2v1.3c1,0.3,1.7,0.6,2.3,1
		c0.6,0.4,0.8,1.2,0.8,3v12.5c0,2.2,0.6,4.2,1.6,5.5c1.8,2,5.1,2.7,8.7,2.7c4.4,0,7.6-1.3,9-3.6c0.9-1.4,1.4-3.3,1.4-5.9v-11.2
		c0-1.7,0.2-2.5,0.8-3c0.6-0.4,1.3-0.7,2.3-1v-1.3h-10V301.2z"/>
	<path class="st0" d="M508.6,319.9l-3.7-7.1c3.3-2,4.2-4.6,4.2-6.8c0-3.2-2-4.9-4.2-5.7c-1.9-0.7-4.7-0.8-6.6-0.8
		c-1.3,0-6.5,0.1-10.2,0.3v1.3c1.1,0.3,1.8,0.7,2.4,1c0.6,0.4,0.8,1.2,0.8,2.9V320c0,1.7-0.1,2.6-0.8,3c-0.6,0.4-1.4,0.7-2.4,1v1.4
		h12.1V324c-1.1-0.3-1.8-0.6-2.4-1c-0.6-0.4-0.8-1.2-0.8-3v-5.5h2.4l3.6,7.2c0.6,1.2,1,2.1,1.3,3.6h8.6V324
		c-0.9-0.4-1.6-0.8-2.3-1.3C509.7,322.1,509.1,321.1,508.6,319.9 M498.8,312H497v-9.7c3.5-0.2,5.9,0.5,5.9,4.5
		C502.9,310,501.8,312,498.8,312"/>
	<path class="st0" d="M528.4,315.1c1,0.3,2,0.6,2.4,1c0.6,0.5,0.8,1.4,0.8,2.9v2c0,1.8-1.8,2-3.9,2c-4.2,0-6.6-4.2-6.6-11.3
		c0-5.9,2.4-9.4,7.4-9.4c4.1,0,5.5,1.5,6.5,5.1h2v-6.7c-2.1-0.7-5.4-1.2-7.6-1.2c-8.6,0-15,4.1-15,13.6c0,8.5,5.6,12.6,12.9,12.6
		c3.6,0,7-0.5,10.1-1.6v-5.6c0-2.4,0-2.7,1.9-3.4v-1.4h-10.9V315.1z"/>
	<path class="st0" d="M168.6,279c-0.6,1,0,1.8,0,1C168.8,279.9,168.8,277.7,168.6,279"/>
	<path class="st0" d="M170.1,279.6c-0.1-0.4,0-1-0.2-1.3C169.8,279,169.9,279.5,170.1,279.6"/>
	<path class="st0" d="M170.5,278.4c0-0.4,0.7-0.6,0.7-0.8C170.7,277.5,170,278.1,170.5,278.4"/>
	<path class="st0" d="M195.9,169.7c-0.1-0.1,0.5-1.4-0.1-1.4C195.7,169,195.2,169.7,195.9,169.7"/>
	<path class="st0" d="M129.8,156.9c0-0.4,0.6-1.1,0-1.1c-0.2,0-0.5,0.1-0.6,0.5C129.9,156,129.3,156.9,129.8,156.9"/>
	<path class="st0" d="M184.5,183.6c0.5-1,1.6-2.5,0.8-3.7c-0.8,2.5-2,6.1-1.8,9C183.9,187.1,183.9,185.4,184.5,183.6"/>
	<path class="st0" d="M186.1,179.8c0-0.5,0.7-1.7,0.2-1.9C186.6,178.6,185.1,179.3,186.1,179.8"/>
	<path class="st0" d="M172.3,226.8c0,1-0.4,0.8-0.1,2C172.9,229.1,172.8,226.8,172.3,226.8"/>
	<path class="st0" d="M164.5,273.5c-0.4,0.4-0.4,1.2,0.2,1.2C164.7,274.2,164.7,273.5,164.5,273.5"/>
	<path class="st0" d="M129,157.5c0.1,1.3-1.4,1.3-0.8,1.9C128.7,159.4,130.2,157.7,129,157.5"/>
	<path class="st0" d="M164.5,274.8c0,0.4-0.1,1.1,0.1,1.1C164.6,275.2,165.2,275.3,164.5,274.8"/>
	<path class="st0" d="M108.7,267.9c0.2-0.4-0.4-1.4-0.4-1.4C108.1,266.8,108.6,268,108.7,267.9"/>
	<path class="st0" d="M108,248.8l-0.6,4.9C108,252,109.3,249.5,108,248.8"/>
	<path class="st0" d="M110.1,230.9c0,0.5-0.2,0.4-0.2,1C110.5,232.5,110.7,230.9,110.1,230.9"/>
	<path class="st0" d="M108.2,245.3c-0.5,0.4-0.1,1.7,0,2.3C108.2,246.9,108.8,245.7,108.2,245.3"/>
	<path class="st0" d="M165.9,275.3v0.7c0.6,0,0.5-0.4,1.1,0v-0.6C166.3,275.3,166.4,275.8,165.9,275.3"/>
	<path class="st0" d="M114.9,210c0.5-0.7,0.4-2.2,0.8-3C114.3,207.9,114.6,208.8,114.9,210"/>
	<path class="st0" d="M106.9,255.6c0.1-0.6,0.1-1.2-0.7-1.3C106.2,255,105.9,255.5,106.9,255.6"/>
	<path class="st0" d="M113.7,211.1c0.6-0.2,1.1,0.7,1.4,0.1C114.3,211,114.2,210.3,113.7,211.1"/>
	<path class="st0" d="M116,204c-0.1,0.2-0.7,1.1-0.2,1.4C116,205.2,116.6,204.3,116,204"/>
	<path class="st0" d="M115.3,206.7c0.5,0.6,0.7-0.8,0.5-0.6C115.8,206.3,115.3,206.3,115.3,206.7"/>
	<path class="st0" d="M169.4,250.5c0.1-0.4,0.4-0.4,0.5-0.4c0.5,0.7-1.2,4.1-0.1,4.3c0.2-1,1.3-6.1,0.4-6.8
		C171,248.4,168.7,248.9,169.4,250.5"/>
	<path class="st0" d="M167.4,254.9c0.6-0.7,1-1.1,0-1.7C167.1,254.1,166.4,254.9,167.4,254.9"/>
	<path class="st0" d="M166.9,257.9c0.2-0.6,1.1-0.8,0-1.2C166.9,256.8,166.4,257.8,166.9,257.9"/>
	<path class="st0" d="M165.8,262.6c0,0,0,0.5,0.1,0.6C166.2,263.1,166.9,262.2,165.8,262.6"/>
	<path class="st0" d="M165.3,263.7c0-0.6-0.4-1-0.6-1.4C164.6,263.1,164.4,263.9,165.3,263.7"/>
	<path class="st0" d="M165.2,266.4c0.1-0.6,0-1.2-0.2-1.3C165.1,265.8,163.9,266.4,165.2,266.4"/>
	<path class="st0" d="M106.3,251.4c-0.5,1.1-0.7,1.7-0.6,2.8C105.8,252.9,107.4,252.3,106.3,251.4"/>
	<path class="st0" d="M105.6,259.1c-0.6-0.1,1-3.5-0.4-3C105.9,256.2,104.6,260.2,105.6,259.1"/>
	<path class="st0" d="M217.5,237c-0.5-0.1-0.6,0.2-0.7,0.4l0.6,0.1C217.4,237.4,217.5,237.3,217.5,237"/>
	<path class="st0" d="M215.3,238.2c0-0.4,0.2-0.4,0.4-0.7C215.3,237.4,214.5,238,215.3,238.2"/>
	<path class="st0" d="M222.9,230.8c-1.1,0.8-2.6,1.8-3.7,2.6C219.9,233.7,222.3,232,222.9,230.8"/>
	<path class="st0" d="M257.9,236.1c-0.4,0-0.6,0.2-0.8,0.7C257.7,236.9,257.7,236.3,257.9,236.1"/>
	<path class="st0" d="M254.9,238.1c-0.2-0.1-0.7,0.1-0.8,0.5l-0.6,0.5C254.1,239.1,254.6,238.5,254.9,238.1"/>
	<path class="st0" d="M252.2,239.3c-0.1,0.7-1.3,0.6-1.3,1.7C251.5,240.6,252.7,239.9,252.2,239.3"/>
	<path class="st0" d="M247.1,242.9v0.6C247.7,243.9,247.7,242.7,247.1,242.9"/>
	<path class="st0" d="M325.7,235c0.1-0.4,0.1-0.6,0-1c-0.6,2-3.4,2.4-3.7,3.8c-0.2,0.2,0.1,0.4,0,0.4c-0.2,0-0.6,0.4-0.5,0.6
		C321.7,238.8,325.1,237.3,325.7,235"/>
	<path class="st0" d="M286.3,248.3c0,7,4.8,11.4,10.2,11.4c7.1,0,18.2-8.5,26.4-15.1c0.4-0.3,0.7-0.6,1.1-0.9
		c-0.4,1.8-0.9,4.3-1.7,5.7c0.5,0.1,0.4,0.5,0,0.6c-0.1,1.4-0.6,2.6-0.8,3.8c-0.2-0.1-0.2-0.7-0.4-0.7c-0.2,1-0.6,1.8-0.8,2.3
		c0.6,0.6,1.3,1.3,1.4,2.9c0.4,0,0.5,0,0.5,0.2c-0.4,1,0.8,1.3,1.2,1.7c1.3,1.3,0.7,1.4,2.5,2c0.4,1,2.5,1.4,3.4,1c0,0-0.2-0.7,0-1
		c0.8,0,0.4,0,0.4-0.8c0.4-1.1,1.2-1.7,1.4-3c-0.2,0-0.4,0-0.4-0.1c0.4-0.4,0.1-1,0.6-1.2c0.1,0.4-0.2,0.6,0.1,0.7
		c0.8-0.5-0.2-2.8,1.1-1.8c0-1.1,1.3-1.9,1.2-3c0,0.5-0.6,1.1-0.7,0.6c1.9-4.1,3.2-6.1,6.2-9.4c0.4-0.4,0.5,0,0.8,0
		c0-1,1.2-1.2,1-2.4c1.7-1.6,3.2-2.8,4.1-4c1.2-0.4,1.7-1.1,2.3-2c2.4-1.8,4.9-3.4,8.3-4.9c2.2-1.3,5.5-1.9,8.4-2
		c1.2,0.2,3.4,1.3,4.4,0.8c0.4-0.1,0.1-0.8,0.4-1.1c0.6-0.4-0.8-2-1.6-2.5c-0.5-0.2-1.4-0.7-1.9-0.7c-0.6-0.4-2.8-2.2-3.5-1.9
		c-0.2,0-0.2-0.5-0.6-0.5c-0.5-0.4-1.2-0.7-1.8-0.6c0.4,0.2,0.5,0.5,0.4,0.5c-1.7-0.6-5-0.8-6.2-0.2c0.2-0.1-0.2,0.6-0.2,0.8
		c0.5-0.2,1.2-1,1.7-0.2c0,0.4-3.4,0.8-4.2,1.4c-1.2,0.4-4.7,1.6-5.2,3c-0.1,0.4,0.6-0.8,1-0.2c-1.1,0.2-0.5,0.6-1.6,1.2l0.1-0.6
		c0,0.3-0.9,0.3-0.8,0.2c-0.9,0,0,0.4-0.7,0.4c0.1,1.1-0.8,0-1.1,1.1c0.6,0,1.1-0.2,1.1,0.4c-0.8-0.6-0.6,0.7-1.4,0.6
		c0.2-0.4-0.6,0.1-0.8,0.1c0,0.2,0.1,0.7,0,1.1c-0.6,0.6-1.9,0.2-2.2,0.6c-0.6,0.6,0.2,0.4,0.4,0.4c-0.5,1.1-2.2,1.2-1.6,1.8
		c-1.2,1-1.9,2.2-2.8,2.9c-0.2-0.8,0.8-1.3,0-1.3c0.6-0.5,0.6-1.6,0.6-2.2c0.7-1.4,0.8-1.9,1.2-3.6c0.4-2.2,1.4-4.4,1.8-5.6
		c-0.2-1.8-1-2.5-2-3.5c-0.6-0.5-0.6-0.7-0.6-1.2c0,0.1-0.1,0.5-0.2,0.7c-0.4-1.3-0.6-1.2-0.6-2c-0.6-0.5-2.2-0.1-2.4-0.1
		c-0.1,0.1-1,0.2-0.5,0.7c-1.1-0.4-0.8-0.5-2-0.5c-0.4,0.5,0,1-0.2,1.2c0.2,0.6-0.7,1.7-0.7,2.3c0.1-0.4,0.4-1,1.2-1.1
		c0.1,1.3-1.1,1.8-1.4,2.9c-0.2,0.6,0.1,0.6,0.1,1.2c0.1,0.5-0.4,0.5-0.5,1.1c0,0.6-0.8,1.6-1.1,1.8c-0.7,3.1-1.2,5.5-1.8,7.9
		c-3.4,2.5-8.3,7.1-11.5,7.8l0.5-0.7c0.4,0.1,0.5-0.5,0.6-1c-0.2,0-0.6,0.4-0.8,0.5c-8,4.9-13.8,8-19.6,9c-1.7,0-1.4-1.7-1.4-2.3
		c0.1-4.1,2-10.3,2-15c0-3.1-0.8-5.6-4.1-6.8c0.2-0.4,1.7,0.4,1.7,0.1c0-0.7-2.3-2.2-2.9-2.2c-0.7,0-0.1-0.2-1.3-0.2
		c-0.5,0-0.1,1.2-1.1,1.2c-0.2-2.5-7-6.5-12-6.5c-2.2,0-4.4,0.7-5.6,2.4c0.6,0,0.8-0.2,1.3-0.2c0,0,0.7,0.7,0.5,1
		c-0.6,0.4-1-0.2-1.6,1.1c-0.7,0.6-0.6,0.4-1.3,1.1c-0.5,0-1.2,0.7-1.3,1.2c-3.5,3.2-6.8,6.6-9.6,10.4c-2.1,1.9-5.4,4.3-8.8,5.9
		c-0.4,0-2.9,1.8-3.2,1.8c-0.2,0.1-0.7,0-1-0.1c0.6-0.5,1-1,1.2-1.7c-3.4,1.7-6,3.4-10.2,5.4c-1,0.7-5.9,2.9-7.2,2.3
		c0.1,0.5,0.1,0.7-0.2,0.7c0,0-3.4,1.3-4.2,1.8c0,1-2.6,1.1-4.2,1.6c-1.4,0.4-3.6,0.7-5.9,0.7c-4.8,0-9.8-1.6-8.2-7.1
		c0.1-0.2,6.5-4.4,9.1-6.2c0.6-0.5,7.9-4.8,7.9-4.7c2.2-2.2,5.8-3.5,7.1-6.1c0.6-1.2,1.6-2.9,1-4.2c-1-2-2.2-4.1-4.4-4.8
		c-0.8,0.6-0.8-0.5-1.9-0.5c-0.2-0.7-5.4,0.2-7.1,1.2c-3.8,1.4-9.1,5.6-11.5,9.6c0.1,0.1,0.4-0.1,0.6,0.1c-0.5,0.1-1.4,0.1-1.9,0.7
		c0.1,0.4-0.5,1-0.6,1c0.1,1.1-1.2,0.2-1,1.9c-0.7,1.7-2,2.9-2.5,3l-1.1,2.1c-0.8-0.7-2-1.9-2.1-1.9c0.2-0.1,1.3,0.2,1.2-0.4
		c-6-1.6-11.8-4.1-18.1-5.3c3.1-12.7,6.6-25.3,10.2-37.9c1.3-4.8,3.6-10.2,3.6-15.2c0.2-2.5,1.9-4.8,1.3-7.4c-0.4-1.1-1-2.3-0.6-3.5
		c-0.6-0.5-1.6-1.1-1.1-1.9c-0.5-0.7-0.7,0.6-1.3,0c0.2-0.5,0.5-0.7,0.1-1.2c-0.8-0.7-1.2,0.7-1.8,0.7c-1.2-0.2-1.1-1.9-2.4-1.9
		c-0.5,0-2.5-0.6-2.5-0.6c0.2,1.2,0.8,2.3,1.3,3.5c0.1-0.4,0.4-0.5,0.5-0.8c1.9,1.6-0.7,3,0.5,4.4c-0.8,0-0.8-0.4-1.2,0
		c0,2-1.4,2.8-0.8,4.9c0.8-1.1,0.8-3.7,2-4.7c-1.1,4.7-2.6,9-4,13.6c-1.2,4-1.9,7.9-3.5,11.8c-1.2,3.4-2.2,6.6-3.1,10
		c-0.6,1.9-1.1,4.1-1.4,6c-0.2,1.1-1.4,3-0.8,4.1c0-0.8,0.2-1.2,0.6-1.6c0.2,1.2-0.2,1.8-0.8,2.8c-0.6,0.7,0.6,0.8,0,1.8
		c0.2,0.1,0.2-0.2,0.7-0.5c0,0.2,0,0.7-0.1,1.1c-2.3-1.6-1.9,4-2.2,5.2c-0.1-0.1-0.1-0.2-0.2-0.4c-1.1,1.6-0.5,5.4-2.2,6.6
		c-0.1-0.4,0-1-0.7-1c0,1.3-9.1-0.5-10.3-0.6c-4.9-0.6-10.1-0.7-15.1-0.7h-5c-7.3,0-14.9,0.2-22,1.2c2.8-16.7,6.6-33.5,11-49.8
		c0.6-2.4,1.2-4.7,1.8-7.1c0.5-1.2,0.4-2.9,0.6-3.8c0.7-2.4,1.6-5,2.2-7.6c0.7-2.9,1.8-5.3,2.8-8c0.6-1.8,1.7-5,3.2-6.2
		c-1.2-0.2,0.2-1.3-0.5-1.8c-1.1,1.2-2.8,0-3.6-0.6c-1.3-0.8-1.6,0.6-2.4-0.1c-0.5,1.1-4,5.5-3.4,6.5c1-0.4,2.4-1.3,2.2-2.5
		c0.5,0.4,0.5,0,0.8,0.4c-2.4,3.2-3.2,6.5-4.9,10c0-0.5,0-1-0.6-1c0.5,1.1-1.7,3.8-1.9,5.2c-0.1,1.8-1.2,4.7-2.2,6.5
		c-0.7,1.6-1.2,3.2-1.4,5.2c-0.4,1.1-1,1.6-1.3,2.4c-0.6,1.2,0.2,1,0.2,1.7c0,0.4-1.8,3.7-1.3,3.4c-0.7,2.5-0.6,5-1.9,7.4
		c-1.1,2.2-0.8,4.3-1.7,6.5c-0.1,2-1.9,4.1-2.4,6.1c-0.1,1.2-0.4,2.4-0.5,3.6c0,1-0.7,1.9-0.7,2.8c0.7,1-1.2,3.8,0,4.8
		c0.5-3.2,1.3-6.4,2.3-9.4c0.4-1.3,0.4-5.4,2.2-6c-0.6,1-1,2.5-1.3,4.1c0.5,0,1.1,0,1.2,0.5c-1.7,1-0.7,3.2-1.3,4.8
		c-0.5,1.2-0.7,0.6-0.6,1.9c0,0.7,0,1.7-0.7,2c-0.6,0,0.2-2-0.6-1.2c0,1.6-0.6,2.9,0.2,4.2c-1.2,0.4-1.2,1.2-1.7,2.3
		c0.6,0.1,1.2-0.1,1.2,0.4c-1.6-0.6-0.7,2.2-1.8,2c0-0.6,0.6-4.3,0.4-4.3c0,0.7-0.6,0.2-1,0.7c0.6,0,0.8,2.3-0.2,2.3
		c-0.5,1.4-1.8,5.6-1.3,7.2c0.6,1.3-2,3.5-0.4,4.8c0.7-0.4,0.1-2.2,0.7-2.4c1.6,0-0.4,0.7,0.6,1.3c1-1.2,0.5-2.5,1.1-3.2
		c0.4,2-0.1,4.4-1.7,5.6c0-0.1-0.1-0.6-0.2-0.7c-0.4,0.1,0,0.8-0.6,0.6c-1.1,0-1.2,0.6-2.5,1.1c-2.3,0.6-1.1-0.6-2-1
		c0,0.4-0.1,0.5-0.2,0.6c-0.5,0.5-1.6-0.2-2.2,0c-0.8,0.5-2.2,1.2-3.1,0c-0.2,2.4,2.8,3,4.7,2.4c-0.1,0.5-1,0.5-0.7,1
		c0.8,0.1,1.9-1.2,1.4,1c0.7-0.2,1.9,0,2.4-0.4c1.1,1-0.1,1.6,0.7,2.4c0-1.2,0.5-0.4,1.1-1.1c0,0.2,0.1,0.7,0.5,0.8
		c0.1-0.1,0-0.7,0.6-0.4c0.5,2.8-0.6,6.1-1,9c-0.4,3,0.4,7.8-1.3,10.2c0-0.5-0.1-0.8-0.5-1c-0.6,0.6,0.4,2.3,0.5,2.4
		c1.6,1.6-0.5,3.6,0.7,4.6c0.4,0.2-0.4,0.7-0.2,1c0.2,0,0.6,0,0.7-0.2c1,2.3,0.4,5.4,1.1,7.8c0.7,2.3,1.8,4.4,3.1,6.5
		c-1.7,0-2.3-0.6-3.1-1.4c0.5,0.2-1-5.8-1.3-6.6c-1-1.3-0.6-9-1.7-9.2c-1,0.6,0.5,2-0.6,2.6c-0.1-1-0.4-2.8-1.1-3.8
		c-0.1,0.7,0.1,2-0.5,2.4c0-0.6,0-1.2-0.2-1.3c-1,1.4,1.7,1.8,0.2,3.1c0.2-0.6-0.1-1.6-0.2-1c0.8,3.5,1.3,11.4,3.7,12.4
		c0,0,0.1-0.5,0.5-0.5c-0.1,1.1,0.6,1.3-0.1,1.2c0.8,1.7,2.8,4,5,3.6c0.4-0.1,1.2-1.4,1.7-1.4c-1.7-1-1.2-3.6-2.3-4.7
		c1.1,0-0.1-5.2,0.5-4.2c0.5-1.2-0.6-5.9,0.1-6.5c1.3-1.1-0.6-4.3,0.7-5.6c0,2.6-0.1,4,0.5,6.1c0.6-8.3-0.2-17.3,2.4-25.2
		c0.7-1.3,7-1.1,8.4-1.3c3.4-0.4,6.5-0.5,9.7-0.6c4-0.1,7.9-0.2,11.8-0.2s7.7,0.1,11.6,0.2c2.8,0.1,5.4,0.2,8.2,0.6
		c0.6,0,3.1,0.7,3.2,0.7c1.7-0.5,1.6,2,1.7,3.5c0,0.2-0.5,2.8,0,1.9c-0.5,4.1-1.8,7.9-1.9,12c-0.7-1-0.1,1.1-1.2,0.5
		c0.1,1.9-0.4,4.8-0.6,6.2c-1.1-0.1,0.2-0.7-0.5-1.1c-0.2,0.5-0.6,1-0.6,1.6c0.7,0.8,1-1,1,0.1c-1,0.7,0.1,0.6-0.6,1.7
		c-0.4-1.2-1.4,0.5-1.6-1.1c-0.6,1.1,0.6,3-0.6,3.7c0-0.4,0-0.7-0.2-1c-0.6,1.3-0.6,3.2-0.6,4.6c0.7,0,0.6-0.7,1-0.7
		c-0.2,0.7-0.4,1.7,0.4,2.2c0.1-1.2,0-2.9,0.6-3.6c-0.5,2.6,0.2,3.1-0.5,5.5c0.5,0,0.7,0,1.2,0.1c-0.2-1.7-0.5-3.4-0.5-5.2
		c0-1.3,0.1-2.5,0.4-3.7c-0.5-0.2-1.1,0.4-1-0.1c0.4-0.1,1-0.5,1.1-0.8c2.5,1-1.3,4-0.1,5.4c0.1,0,0.8-1.1,0.8-1.1
		c-0.6,1.2,0,2-0.6,3c0.8,1.1,1.1-1.1,1.2,1.3c0,1.1-0.4,2.9,0.5,3.7c0.5-0.7,0-2.2,0.6-2.5c0.6,0.7,0.4,2.2,0.5,3.4
		c0.1-1.2,0.1-2.4,0.1-3.7v-3.7c0-1.4-0.6-5,0.7-6.1c0,2.9-0.6,5.8-0.4,9c1.2,0.6,0.4-0.8,1.4-0.7c0.1,1.4-1.4,0.8-1.3,2.3
		c-0.1,0.6,1.2-0.6,0.7,0.6c-0.7-0.6-1.2,1.9,0,1c-0.1-0.1-0.2-0.1-0.5-0.2c0-0.4,1-0.4,0.8,0.1c0.2-0.7,0-1.7,0.4-2.4
		c0.5,0.1,0.4,1.8,1.1,0.7c-0.6-2.2,0.1-5.5,0.7-8.4c0.5,2.8,0,4.6,0.6,7.2c0.6-10.2,2.9-24.4,5.6-34.3c4.3,0.7,7.4,1.8,11.2,1.8
		c-0.8-0.2-2.4-0.2-3-1.2c2.2,0.5,4.2,1.1,6.2,1.6c1.9,0.4,3.6,1.2,5.3,2c-0.1,1.6,0.3,3.2,0,4.7c-0.6,3.7,3,8.5,6,9.7
		c3.4,1.6,7.2,2.2,11.2,2.2c7.1,0,14.5-1.9,19.8-4c6.1-2.5,6.7-3.2,12.6-6.5c1.1-0.7,2.1-1.4,3.1-2.2c-0.8,1.9-1.6,3.9-2.2,6
		c-0.6,0.7-0.8,1.4-0.8,2.4c0,3.6,4.9,7.8,9.8,7.8c7.8,0,22-20,28.6-22.1C286.7,244,286.3,246.3,286.3,248.3 M314.4,244.2
		c0,0.2,0,0.6-0.7,0.6C313.9,244.2,314.3,244.2,314.4,244.2 M313.2,245.2c-0.1,0.5-1.3,0.7-1.7,1.4
		C310.5,245.9,312.6,245.2,313.2,245.2 M225.5,228.9c0.4,0.4-0.1,1.2-0.7,1.2C224.6,229.2,225.3,229.5,225.5,228.9 M225.2,227.3
		c-0.5,1.1-1.6,2.5-1.9,3.7c0.4-0.2,0.8-0.6,1-1c0.2,0.1-0.1,0.6-0.2,1c0.2-0.2,0.5-0.4,0.5-0.4c0,0.2-0.2,1-0.8,1.2
		c-1.3,0.7-2.8,1.8-4.4,2.4c0-0.4-0.1-0.5-0.4-0.6v0.7c-0.4,0.5-0.8,0.7-1,1.1c0.8,0,2.4-0.4,2.8-1c-0.2,1.3-3.2,2.2-3.2,3.5
		c-0.4-0.1-0.6,0-1,0.2c0.2-0.2,0.4-0.6,0.4-0.8c-0.5,0.2-0.7,0.2-0.7,1.1l-0.8,0.6c0.2-0.5-0.6,0-0.6,0.2c-0.2,0.1-0.7,0.1-1,0.1
		c-0.2,0.5-0.8,0.5-1.2,1.2c-0.2-0.8,2.8-1.8,2.2-2.4c-0.8,0.5-1.6,1-2.8,1.2l-1-0.4C211.5,235,219.7,225.5,225.2,227.3
		 M127.4,163.6c0,1.8-0.8,4.4-1.4,6.1C125.1,167.8,127.2,165.9,127.4,163.6 M123.9,174.3c0.5,1-0.7,2.4-0.8,3.8
		C123,176.8,123.2,174.9,123.9,174.3 M107.7,275.1c-1.9-3.2-2-6-1.9-10.4c0.5,0.8,0.4,1.2,0.4,2.3c0.4-0.1,0.7-0.2,0.8-0.2
		C105.7,269.7,108.2,272.1,107.7,275.1 M111.8,226.8c-0.6-0.2,0.1-1.3,0.1-1.6C112.5,225.3,111.9,226.7,111.8,226.8 M110.7,254.2
		c1,0.8-0.1,3.5,0.2,4.3C109.9,258.6,111.1,255.5,110.7,254.2 M110.6,260.3c0.7,0.5,0.1,0.6,0,1.3
		C110,261.6,110.7,260.8,110.6,260.3 M109.8,264.5c0.2,0,0.1,1,0.2,1.2c0.7-1.2-0.2-1.4,0.6-3.1c0.4,0.7,0.4,2.3,0.4,3.2
		C109.9,266.1,109.5,265.5,109.8,264.5 M109.9,267.3c0.7-0.4,1.3,5,1.4,5.6C110,271.5,110.6,269.1,109.9,267.3 M111,268.5
		c0.4,0,0.6,0.4,0.6,1C111.1,269.3,111,269.1,111,268.5 M111.3,264c-0.1-0.4,0.2-0.6,0.6-0.4C111.9,264,111.8,264.3,111.3,264
		 M111.7,267.3c0.7,0.2,0.5,1.4,0.6,2.5C111.7,269.2,111.6,268.1,111.7,267.3 M112.4,254.3c-0.6,0,0-1.2-0.1-1.4
		C112.8,253,112.8,254.1,112.4,254.3 M112.5,224.4c-0.6,0-0.1-0.7-0.6-0.8c-1.3,0.7-0.1,4.3-1.8,4.9c0.6-2.5,0.6-5.4,2-7.7
		c0,0.8,0.1,1.6-0.5,2.2c0.1,0.5,1.3-0.6,1.4,0.1C112.4,223.5,113,223.7,112.5,224.4 M113.1,220.8c-0.7-0.4,0-0.8,0.5-0.8
		C113.6,220.5,113.4,220.6,113.1,220.8 M114.1,257.4c-0.5-0.1,0.1-1.2,0.2-1.8C115.2,255.9,114.2,257.1,114.1,257.4 M117,203.7
		c-0.6-0.2-0.4-1,0.1-1S117,203.4,117,203.7 M122.1,180.6c0.4,1-0.7,2.6-1.2,4.4C120.8,183.6,122.1,181.6,122.1,180.6 M120.6,186.3
		c0.6,0.2,0.1,1.8-0.6,1.8C120.3,187,120.3,187.5,120.6,186.3 M117.3,199.1c-0.2-3.2,1.6-6.5,2-9.5
		C120.1,191.7,117.7,195.6,117.3,199.1 M165.3,270.4c-0.4-0.1-0.2-1.1-0.2-1.8C165.6,268.8,165.6,269.7,165.3,270.4 M166.4,267.9
		c-0.2,0.7-0.7-0.5-0.6-1.1C165.8,266.8,166.2,268,166.4,267.9 M168.9,257.8c0.6,0.5,0.6,0.8,0.2,1.8
		C168.6,259.6,169.2,258,168.9,257.8 M168.8,260.1c0.4-0.8,0.4,0.6,0.4,0.8C168.8,261.4,168.7,261,168.8,260.1 M168.3,265.5
		c0.2,0.1,0.2,0.4,0.2,0.6C168,267.3,168.2,265.2,168.3,265.5 M168.9,262.6c-0.8-0.4-0.2-1-0.2-1.2
		C169.4,261.4,168.8,262.1,168.9,262.6 M169.4,274.6c-0.1-0.1-0.6-1.3-0.1-1.2C169.8,273.4,169.8,274.2,169.4,274.6 M169.4,272.7
		c-0.6-0.2,0-1.4-0.1-2C169.8,271.1,169.9,272.1,169.4,272.7 M170.5,254.1c0.7,0,0.6,0.4,1.2,0c0.1-1.2-0.1-1.8,0.5-2.8
		c1.6,2.4-1.8,5.5-0.2,7.9c-0.4,0.5-0.7,0-1.2,0.2c0.2-1.7,0.4-3.2,0.5-4.8c-0.7-0.4,0,0.7-0.8,0.4
		C170.5,254.9,170.5,254.4,170.5,254.1 M171,263.7c-1.1-0.8,0-2-0.2-4c0.8,0.1,0.4,1.3,1.1,1.6C171,261.6,170.7,262.8,171,263.7
		 M172.3,263.8c-1.1,0.2-0.5-0.7-0.4-1.2C172.8,262.8,171.9,263.1,172.3,263.8 M171.9,262.2c0.2-0.8,0.6-1.8,0.6-3.2
		C173,259.6,172.9,261.6,171.9,262.2 M173,249.5c-0.7-0.5-0.2-1.3-0.1-2.3C173.7,247.8,173.5,249.4,173,249.5 M173.4,247
		c-0.5-0.6,0.4-3.5,0.8-4.6C174.2,243.3,174,246.4,173.4,247 M176.1,222.5c-0.1,0-0.1,0-0.4-0.1c-0.4-0.5,0.1-0.5,0.2-1
		C176.4,221.8,176,221.9,176.1,222.5 M197.4,239.4c-0.4-0.1-2.9-1.2-1.6-0.7C196.4,238.7,197.6,238.6,197.4,239.4 M223.1,255.3
		c0.2-0.5,0.6-0.6,1-0.6C224.1,255.3,223.5,255,223.1,255.3 M225.1,254.3c0.1-0.2,0.6-0.2,0.8-0.2
		C225.8,254.8,225.5,254.3,225.1,254.3 M226.3,253.8c0.1-0.6,1.6-0.7,2-1c0-0.6,0.6-0.6,1.1-0.4C229.1,253.2,227,253.7,226.3,253.8
		 M236.7,249.3c1.1-1.1,3.4-1.7,5.3-2.9C240.3,247.7,239,248.9,236.7,249.3 M279.9,234.6c-0.5,1.8-1.2,3.5-2.2,5
		c-3,4.6-4.4,4.9-9.7,9.8l-2.3,1.3c0-0.4,1-1.3,0.4-1.3c-0.5,0-2.2,2.3-2.9,1.9l0.1-0.7c-0.6,0.4-1.1,0.7-2.3,1.1
		c0.2-1.8,2-4.3,2.4-4.7c0.2-0.1-0.2-0.1-0.6-0.5c4.7-7.8,9.4-15.4,16.4-20.8c0.6,2,0.8,3.8,0.8,5.6
		C280.2,232.6,280.1,233.7,279.9,234.6"/>
	<path class="st0" d="M269.9,224.3c0.1-0.2,0.7-1.3,0.2-1.4c-0.4,0.6-0.7,0.7-0.7,1C269.4,224.1,269.5,224.2,269.9,224.3"/>
	<path class="st0" d="M317.3,242.2c0.1-0.7,0.8-0.1,1.1-0.7c0-0.2,0-0.6,0.1-0.8C317.1,240.9,316.5,241.7,317.3,242.2"/>
	<path class="st0" d="M320.5,239.9c0.2-0.5,0.6-0.2,1-1.1c-0.6-0.1-1.3,0.5-1.7,0.6c-0.7,0.4-1.1,0.4-1.1,1c0.4,0,1.1-0.5,1.2-0.6
		C320.1,239.9,320.3,240,320.5,239.9"/>
	<path class="st0" d="M334.1,252.6c0.6-0.1,0.7-1.9,0.6-1.6C334.4,251.8,334.1,252,334.1,252.6"/>
	<path class="st0" d="M344.4,228.3c0,0,0.1,0,0.1,0C344.4,228.3,344.4,228.3,344.4,228.3"/>
	<path class="st0" d="M432.7,192.4c0.5,0.1,1.2-0.1,1-0.1C432.5,192,431.9,192.4,432.7,192.4"/>
	<path class="st0" d="M422.3,191.9c0.1,0,0.2,0,0.2-0.1h-1.3C421.5,191.8,421.5,192,422.3,191.9"/>
	<path class="st0" d="M427.1,192.4c0.1,0,0.2,0,0.6-0.4c0.2,0,1.2,0.4,1.2,0c-0.5-0.1-2.4-0.4-2.4,0
		C426.5,192.3,426.7,192.4,427.1,192.4"/>
	<path class="st0" d="M420.1,191.8c0,0-1.2-0.1-1.9-0.1c-0.2,0-0.6,0.1-0.5,0.1C419.7,191.9,420,191.8,420.1,191.8"/>
	<path class="st0" d="M392.1,180.9c0-0.5,0.6-0.8,0.6-1.1c0-0.1-0.2-0.1-0.2-0.4c-0.1,0.2-0.6,0.8-0.6,1.2
		C391.9,180.6,391.9,180.9,392.1,180.9"/>
	<path class="st0" d="M394.5,177.3c0-0.2,0-0.5-0.2-0.5c-0.1,0-0.6,1.3-0.4,1.4C394.1,178.5,394.5,177.4,394.5,177.3"/>
	<path class="st0" d="M396,173.9c-0.1,0.7-1.2,2.2-1.2,2.4c0,0,1.2-1.3,1.2-2V173.9z"/>
	<path class="st0" d="M429.7,192.4c1.1,0,1.8,0.1,1.8-0.1c-1.4-0.2-1.9-0.2-1.9,0C429.6,192.3,429.6,192.4,429.7,192.4"/>
	<path class="st0" d="M374.5,228.4c1,0,0.6-1,1.2-1c-0.1-0.2-0.4-0.6-0.6-1.3C375,227.1,374.7,227.8,374.5,228.4"/>
	<path class="st0" d="M396.1,176.1c0-0.1,0-0.1,0.1-0.2C396.1,176,396.1,176,396.1,176.1"/>
	<path class="st0" d="M370.9,256.7h0.2c-0.6-0.6,0-1.9-1.1-2.4C370.5,254.9,370.2,256.7,370.9,256.7"/>
	<path class="st0" d="M370.1,250.8c0.1,0.8,0,1.7,0.2,2.4v-1.4C370.3,251.3,370.3,251.1,370.1,250.8"/>
	<path class="st0" d="M373.2,233.2c0,0.2-0.6,1.3-0.1,1.3c0.1-0.2,0.5-0.7,0.5-1.2C373.5,233.2,373.2,232.8,373.2,233.2"/>
	<path class="st0" d="M372.9,235.6c0-0.4-0.2-0.5,0.2-0.7C372.7,234.9,372.3,235.6,372.9,235.6"/>
	<path class="st0" d="M373.9,231.6c0,0,0-0.1-0.2-0.2c0,0.2-0.4,1.3-0.1,1.3C373.5,232.7,373.8,232,373.9,231.6"/>
	<path class="st0" d="M499.9,217.1c0.2-0.6,1-2,0-2.4C499.7,214.8,499.5,216.9,499.9,217.1"/>
	<path class="st0" d="M414.5,227.4c-1,1.4-1.7,4.7-1,5.8C413.7,232.1,415.2,226.5,414.5,227.4"/>
	<path class="st0" d="M417.1,221.8c0.6,0,0.8-0.7,1-1.7C417.1,220,417.3,221.2,417.1,221.8"/>
	<path class="st0" d="M562.9,200.4c0-0.4,0.4-0.4,0-0.8C562.9,200.1,562.4,200.1,562.9,200.4"/>
	<path class="st0" d="M550.9,214.7c0.1-0.1,0.3-0.1,0.4-0.2c0,0,0,0,0,0C551.2,214.5,551.1,214.6,550.9,214.7"/>
	<path class="st0" d="M551.3,214.5C551.6,214.3,551.6,214.3,551.3,214.5"/>
	<path class="st0" d="M573.8,183.6c0-0.8,1.4-1.2,1.1-2C574.9,182.4,573.5,182.8,573.8,183.6"/>
	<path class="st0" d="M543.3,204.9c0,0,1-0.8,0-0.8C543.3,204.4,542.3,204.4,543.3,204.9"/>
	<path class="st0" d="M556.4,177.4c0,0.5-1,1.1-0.5,1.7C555.9,178.5,557.3,177.9,556.4,177.4"/>
	<path class="st0" d="M560.7,203.1c0.5-0.6,1.2-1.7,1.2-2.3C561.7,201.6,560.7,202.1,560.7,203.1"/>
	<path class="st0" d="M560,203.1c0,1.3-1.8,1.3-1.2,2.2C558.8,204.9,560.7,203.4,560,203.1"/>
	<path class="st0" d="M628.3,244.2c-0.1,0.5-1,1.2-0.7,1.2c0.4-0.4,0.6,0,0.7,0C628.3,245.4,628.9,244.6,628.3,244.2"/>
	<path class="st0" d="M622.4,251.9c1.2-0.2,2.4-1.7,2.4-2.4C624,250.2,623,250.7,622.4,251.9"/>
	<path class="st0" d="M608,250.5c0,0.6-0.1,1,0.5,1C608.6,251.1,608.7,250.5,608,250.5"/>
	<path class="st0" d="M630.2,239.2c0.4,1.1-1.3,2.4-0.6,3.2c0.1-0.7,0.1-2.2,1.1-2.2C630.6,239.7,630.6,239.3,630.2,239.2"/>
	<path class="st0" d="M625.4,248.9c0.4-0.5,2.2-1.2,1.3-2.3C626.4,247.7,625.5,247.8,625.4,248.9"/>
	<path class="st0" d="M666.5,251.1c-0.2,0.7-0.6,1-0.6,1.6C666.5,252.5,666.6,250.7,666.5,251.1"/>
	<path class="st0" d="M699.1,226.1c-0.5-0.2-1.4-0.7-1.9-0.7c-0.6-0.4-2.8-2.2-3.5-1.9c-0.2,0-0.2-0.5-0.6-0.5
		c-0.5-0.4-1.2-0.7-1.8-0.6c0.4,0.2,0.5,0.5,0.4,0.5c-1.7-0.6-5-0.8-6.2-0.2c0.2-0.1-0.2,0.6-0.2,0.8c0.5-0.2,1.2-1,1.7-0.2
		c0,0.4-3.4,0.8-4.2,1.4c-1.2,0.4-4.7,1.6-5.2,3c-0.1,0.4,0.6-0.8,1-0.2c-1.1,0.2-0.5,0.6-1.6,1.2l0.1-0.6c0,0.3-0.9,0.3-0.8,0.2
		c-0.9,0,0,0.4-0.7,0.4c0.1,1.1-0.8,0-1.1,1.1c0.6,0,1.1-0.2,1.1,0.4c-0.8-0.6-0.6,0.7-1.4,0.6c0.2-0.4-0.6,0.1-0.8,0.1
		c0,0.2,0.1,0.7,0,1.1c-0.6,0.6-1.9,0.2-2.2,0.6c-0.6,0.6,0.2,0.4,0.4,0.4c-0.5,1.1-2.2,1.2-1.6,1.8c-1.2,1-1.9,2.2-2.8,2.9
		c-0.2-0.8,0.8-1.3,0-1.3c0.6-0.5,0.6-1.6,0.6-2.2c0.7-1.4,0.8-1.9,1.2-3.6c0.4-2.2,1.4-4.4,1.8-5.6c-0.2-1.8-1-2.5-2-3.5
		c-0.6-0.5-0.6-0.7-0.6-1.2c0,0.1-0.1,0.5-0.2,0.7c-0.4-1.3-0.6-1.2-0.6-2c-0.6-0.5-2.2-0.1-2.4-0.1c-0.1,0.1-1,0.2-0.5,0.7
		c-1.1-0.4-0.8-0.5-2-0.5c-0.4,0.5,0,1-0.2,1.2c0.2,0.6-0.7,1.7-0.7,2.3c0.1-0.4,0.4-1,1.2-1.1c0.1,1.3-1.1,1.8-1.4,2.9
		c-0.2,0.6,0.1,0.6,0.1,1.2c0.1,0.5-0.4,0.5-0.5,1.1c0,0.6-0.8,1.6-1.1,1.8c-0.7,3.2-1.2,5.7-1.8,8.2l-1.2,0.6c-3.8,2-4.8,2.4-6,2.4
		c0,0-0.7,0.2-1.2,0.5c-5.5,0.4-7.4-0.7-8.6-1.4c-0.6-1.6-2.3-2.8-2.8-3.2c-0.6-0.4-0.1-1-0.6-1.3c-0.7-1.7-1.8-2.6-3-3.1
		c-0.8-0.7-0.7-1.6-1.4-0.7c-1.2-1.8-2.8-1.7-2.8-3.8c-0.5-0.4-1.9-1.2-2.9-1.2c-1,0-1.3,0.4-1.4,0.4c-1.9,0-2.9-1.3-4.2-0.7
		c0.2,0,0.2,0.1,0.5,0.4c-1.1,0.8-2.6,0.4-2.6-0.7c-0.2,0.6-1.6-0.5-1.8,0.4c0.2,0,1.1,0.7,0.4,0.7c-0.1-0.4-0.7,0.1-1.1,0.7
		c0.1,0-0.1,1-0.5,1.1c0.8,0.1,0.8-1.1,2-1.1c0.2,0.5,0.8-0.2,0.8,0.5c-1.4-0.4-0.6,0.7-1.2,1.2c-0.2,0-0.5,0.1-0.7,0.5v1.2
		c-0.6,1.2-1.7,1.6-2.2,2.4c0.5,0.7,0.5-0.4,0.6,0c-0.1,0.4-0.6,1.3-1.2,2c-1.2-0.6-2.4,1.6-1.5,1.8c-1.1,0-2.1,0.7-2.9,1.6
		c-5.2,4.9-13.3,12.1-20.5,17.4c-3.4,2-6.8,4-10.6,4.8c-1.8,0.1-3,0.2-4.7-0.4c-0.6-0.7-1-2.3-0.8-3.7c0-6,2-10.6,3-15.1
		c0.1-1.4,0.2-2.8,0.2-4.1c0-3-0.6-5.5-2.5-7.3c-0.5,0.4-0.5,0-0.7,0c-3-1.1-5.9-2.8-9.4-2c-0.8,0-1.3,1-2.2,1
		c-3,1.7-6.8,4.2-6.8,5.3c0,0.4-1,1.4-1,1.4c-0.4,0-0.4-0.5-0.8,0c0,0-1.8,1.8-3,1.9c-0.2,1.6-0.8,1.6-1.8,3c-1.6,1.1-2.5,2-3.8,3.4
		c-0.5,0.5-1.3,0.8-1.9,1.3c-0.5,0.5-0.5,1.2-1,1.8c0,0.5-1.1,0.5-1.3,1c0,0.4-0.4,1-0.4,1.6c-1,0-1.2,1.2-1.8,1.8
		c0,0.6-0.4,0-0.8,0.6c-0.7,0.8-1.3,2.9-2.8,3.4c0-5.3,1.4-9.4,2.8-14.3c0.8-3,0.8-4.3,2-6.2c1.7-2.6,5.3-6.6,7.6-8.9
		c2.3-2.2,5-4.6,7.2-6.7c1.3-1.6,2.9-2.9,4.2-4.7c3-3,5.9-7.3,8.4-10.9c0.8-0.8,0.8-1.1,3.2-4.7c0.4-0.5,0.8-0.5,0.8-0.5
		c0.7-0.8,1.3-2.4,1.8-2.9c0.7-1.3,1.2-2.6,2.2-3.6v-0.7c0.8-1.1,1.2-1.4,1.7-2.9c1.1-1.4,1.7-2.2,1.9-3.2c1.6-1,1-1.9,1.7-3.4
		c1.3-2.8,3.1-6.4,3.6-9.6c0-0.4-0.5,0-0.5-0.4c0-1.4,1-2.8,0.5-4.1c-0.5-5.4-3.7-9-8.9-10.1c-0.7,1.3-1.4,1.9-2.6,2.4
		c-0.6,0.4-1,0.4-1.3,0.7c-0.8,0.5-1.2,1.6-1.7,2.2c-1.9,1.2-3.4,2.9-4.3,3.8c-2,1.8-3.4,4-4.6,5.4c-0.7,1.8-2.5,3.2-3,5
		c3-3.5,5.5-8.6,9.4-10.7c-0.8,0.7-1.6,1.7-2.4,2.4c-1.4,1.4-2.3,2.3-3,3.2c-1,1.6-1.4,2.9-2.6,3.6c-0.2,1-0.8,1.4-1.3,2.2
		c0,0.6,0,1.1-0.5,1.7c-0.4,0.8-1.3,1.9-2,3.1c-1.3,2-2.3,3.8-3.6,6c-1.6,1.7-2.8,3.2-2.8,4.7c-0.2,0-0.2,1.3-1,2.2
		c1.9-0.4,1.4-2.8,3-3.8c1-1,1-2.5,2.5-3c-1,1.3-1.6,3-2.5,4.7l-1.4,1.3c-0.6,0.8-0.6,1.3-0.8,2.3c-0.5,0.6-0.7-0.5-1.2,0
		c0,0,0.5-1,0-1l-2.3,4.2c-0.5,0.5-2.4,3-1.8,4c0,0,0.5,0.2,0.6,0.4c0.4-1,0.7-1,0.4-1.3c0.4-0.5,0-1.3,0.8-1.3c0,0.8-0.5,2-0.5,3.6
		c-0.4,0-0.7,0-0.7,0.5c-0.1,0.2-0.2,0.7-0.6,0.7c-0.6,0-0.6-0.4-1.1-0.4c-0.8,1.4-1.4,3-2,4.2c-0.5,0.5,0.2,2.4-1.1,1.2
		c0,1.2,1.1,1.2,1.1,1.7c0,0-0.5,0-1.1,0.5c0,0-0.2-0.5-0.7,0c-1,0.6,0,1.4,0,1.9c-0.5,1-1.2,0-0.5,1.2c-0.7-0.2-1.8,1.3-0.7,2.2
		c0.2-0.8,0.2-2.4,0.7-1.6c-0.5,1.9-1.8,3.4-1.8,5.3c-0.5,0,0-0.7-0.7-0.7c0,1.3-1.6,2,0,2c-0.6,0.4,0,1.2-0.6,2.2
		c-1,0.6-1.3,1-1.3,1.3c-0.2-0.5-3.2,0.8-3,3.6c-0.5,0-1,1.4-1,1.4c-0.6,0.5-1.4,2-1.9,2.8c-1,0.6-1.2,1.8-1.9,2.6
		c-0.2,0.3-0.4,0.5-0.5,0.7c-0.8,0.4-1.6,0.9-2.2,1.4c-1,0.6-1.8,1.4-2.4,1.9c-0.5,0.1-1,0.1-1.1,0.1c-2.9,2.3-5.5,4.3-8.2,6.1
		c-1.4,0.6-2.8,0.6-3.7,1.7c-1.9,1.1-3.2,2.2-5,3.4c-4.8,2.8-1.4,0.6-6.8,3.6c-0.8,0.7-1.8,1.6-3.2,2c-4.2,2.2-6.7,3-10.3,4.8
		c-1.4,0.5-1.8,1.1-2.8,1.2c-5.5,0.6-12.6,4.8-18.7,6.4c-6.7,2-14,4.6-22.1,4.6c-2.2,0-4.3-0.1-6.6-0.6
		c-11.2-1.7-15.6-10.3-15.6-23.5c0-2.3,0.1-4.8,0.4-7.4c0.2-2.4,1.2-5.8,2.2-9c0.4-1.1,0.5-2.4,0.8-3.8c0.2-0.7,1.2-1.9,1.4-2.6
		c1.6-3.7,2.2-7.2,3.6-10.7c3.7-7.6,7.4-14.5,11.8-21.2c0.1,0,0.2,0.1,0.3,0.1c0.8-0.4,1.7-0.6,2.6-0.6c1.2,0-1.2-0.5-1.2-0.6
		c1.6,0,1.9,0,2,0.1c0.1,0.4,0.5,0.4,0.6,0.4c0.1,0,0.1-0.2,0.7,0.1c0-0.4,0-0.7,0.2-0.7c0.4,0.1,0.7,0.1,1.2,0.1
		c1.2,0,1.8-0.1,2.8-0.1c0.6,0,1,0,1.7,0.1c0,0,4-1.9,4.8-2.2c-0.6-0.2-1.1-0.2-1.3-0.2c-1.6,0-1.8,0-1.9-0.1h2.4
		c0.2,0,0.8,0,1.2-0.5l-4.2,0.1h-3.8c0,0.1-0.1,0.4-0.1,0.4c-0.2,0-0.8-0.2-1.3-0.2c-0.4,0-0.6,0-0.6,0.4h1.4h3.5h1
		c-0.5,0.1-1.8,0.1-2.3,0.5c-1.2-0.4-1.9-0.4-2.4-0.4c0,0.4-0.1,0.4-0.4,0.4c-0.1,0-0.2,0-0.6-0.2c0.2-0.2-1.9-0.1-1.9-0.1
		s0.4,0.1,1,0.4c-0.5,0-1.6-0.2-1.8,0c-0.2,0.1-0.6,0.1-1.1,0.1c-0.2,0-0.4,0-0.5,0c0.6-0.8,1.1-1.7,1.7-2.5
		c8.5-11.8,17.9-19.7,29.6-26.4c4.9-2.8,12.6-5.2,19.4-5.2c4.6,0,8.9,1.1,11.8,4c0.6,0.6,1.2,1.9,1.8,2.6c0.8,1.3,2,3.1,2.8,3.1
		c1.7,5,2.3,9.8,2.3,14.5c0,8.8-2.3,17.4-4.7,26.5c-1,2.2-3.5,4-1.9,6.6c0.4,0,0-1.1,0.6-1.1c1.2,0,1.3,1.2,2.4,1.3
		c4.2-1.1,4.2-7.7,5.6-12.1c2.4-5.6,4-12.8,4-20.2c0-2-0.1-4.2-0.4-6.2c-1.8-15.4-13.7-25.2-28.7-25.2c-1.3,0-2.6,0.1-4,0.2
		c1.9,0.2,3.2,0.2,4.3,1.1c-3.1,1-7.8,1.8-9.5,3.4c-1.1-0.8-3.5-0.2-3.7,1.2c-0.5,0-0.4-1-1.2-0.5c0,0.2-0.5,0.6-0.5,0.5
		c-0.8,0.1-1.4,0.6-1.9,1c-0.6,0.5-1.7,1.7-1.8,0.6c0.1,0,0.5-0.1,0.6-0.6c-4,2.8-8.3,5-10.9,8.4c-0.2-0.1-0.6-0.2-1.2-0.2
		c-1.2,0.8-1.8,2.4-3.2,3.1c-2,1.3-4,4.3-6.4,6.1c-1.1,1.4-2.6,1.4-2.8,3.8c-0.6-0.4-0.8,0-1.2,0.1c1.2,1.1-2.4,1.8-1.9,3.1
		c0,0.6,1.2-1.1,1.2,0c-1.2,1.6-2.5,4.2-4.1,4.6c0.5-1.1,2.8-3.2,1.8-4c-2.6,2.5-3.2,4.9-5.3,7c1.2,1,2.2-2.8,3.2-2
		c-0.5,0.8-1,1.5-1.5,2.3c0,0,0,0,0,0c0,0,0,0,0,0c0,0,0,0.1-0.1,0.1c-0.3,0.1-0.8,0.1-0.8,0.4h0.6c0,0-0.1,0.1-0.1,0.1
		c0,0-0.1,0-0.1,0c-0.5,0-0.9,0.1-1.3,0.2c0,0,0-0.1,0-0.1c0,0-0.1,0.1-0.1,0.1c-0.2,0.1-0.3,0.1-0.4,0.2c-0.2-0.4-0.6-0.5-0.8-0.5
		c-0.4,0-0.5,0.1-1,0.1c-1.3,0-2.2-0.1-3.1-0.1c-0.8-0.2-2.9,0-4.1-0.2c0,0.2-0.1,0.4-0.2,0.4c-0.4,0-0.5-0.1-0.5-0.2
		c-1.2,0.1-7.1-0.6-6-0.6c0.1,0-1.3-0.6-1.8-0.1c0.1,0.1,1.1,0,1.1,0.1c0,0.2-0.4,0.2-0.6,0.2c-0.7,0-3.6-0.1-2.2-0.6
		c0.6-0.1-1.9-0.1-1.9-0.1c-2.4-0.1,0.5-0.1-2.4-0.1c-0.2,0-0.5,0.5-1.1,0.5c-0.2,0,0.4-0.5,0.4-0.5c0-0.5-0.7,0.1-1,0.1
		c0,0-0.1,0-0.6-0.1c-0.1,0.1-0.1,0.5-0.4,0.5c0.1-0.5-0.5-0.5-0.5-0.6c0,0-0.7,0.2-1.2,0.2c-1.1-0.1-1.8-0.2-2.5-0.2
		c0.7-1.2,0.7-1.6,1.3-2.2c1.3-3.1,4.4-10.2,6.5-11c0-0.4-0.2-0.8-0.2-1c0-1.2,1.4-1.9,1.6-2.9c0-4.6-6.1-5.5-6.1-7
		c-1-1-2.9-0.6-4.1-2c-0.1,0.2-0.1,0.4-0.1,0.5c0,0.4,0.2,0.4,0.2,0.6c0,1-3.2,4.6-3.8,4.7c0,0.1,0.1,0.2,0.1,0.5
		c0,0.8-1.3,1.4-1.3,2.2c0,0.2,0.1,0.2,0.1,0.4c1.2-1.9,2.6-4.2,4.8-5.5c-1.1,2-3.1,3.7-3.6,5.6c0.1,0.6-1.2,1-1.5,2
		c0.1-0.1,0.2-0.1,0.3-0.1c-0.5,1.1-0.7,2-1.7,2.9c0-0.8,1-1.3,1-1.9v-0.5c-0.5,1-1.6,2.2-1.6,2.9c0,0.1,0,0.2,0.1,0.2
		c-0.7,2.4-2.8,4.7-3.1,7h-0.2c-0.8,0-1,1-1.4,1.2c0,0,0.4,0,0.5,0.6c-0.2,0-0.5-0.1-0.6-0.1c-0.1,0-0.7,2-0.8,2h-8.3
		c-1.2,0-2.8,0.1-3.5,0.5c-0.1-0.4-0.6-0.4-1.1-0.4c-10.2,0-14.6,0.8-22.9,2.8c0.5-0.6,1.8-0.5,2.3-1.1c-2.4,0.5-5.2,1.7-6.7,2.8
		v-0.4c0,0-0.2,0-1.2,0.7c0.2-0.6,0.8-0.6,0.8-0.8c-3.2,0-6.8,3.8-9.7,6c0-0.4-0.5-0.4-0.6-1v0.4c0,1.4,6,5,8,5l0.2-0.4
		c0.1,0,0.2,0.2,0.4,0.4c1.8-0.7,3.2-1.9,5.2-2.8c5.5-2,12.1-3.8,21-4.4c4.7-0.2,1.2,0,8.4,0c1.2,0,3.1,0.2,4.2,0.2
		c0.7,0-0.6,0.1-0.6,1.2c0,0.2,0.5-0.2,0.7-0.2c0.5,0-0.6,1.1-0.8,1.1c0,0.4,0.2,0.7,0.2,0.7c-0.6-0.2-4.8,13.4-4.8,13.1
		c-1.3,4.1-3.2,8.2-4.4,12.1c0.1,0.2,0.2-0.4,0.7-0.4c0.5,0-0.4,1.8-0.4,2.2c0,0.5,0,0.8,0.2,1.1c-1,1-1.6,3.6-1.6,5.4v0.6
		c-0.5,0.1-0.6,0.5-0.6,0.7c0,0.4,0.4,0.8,0.4,1.2c-0.4,1.6-1.1,1.6-1.1,2.6v1.2c0,0.7-0.4,0.2-0.6,1.3c0,0.6,0.1,1.4,0.1,1.4
		c0,0.8-0.1,1.7-0.6,2.2c0-2.4,0.6-6.4,1-8.3c-0.5-0.2-0.6,0.1-0.4,0.5c-1.7,3.8-1.4,9.8-1.4,14c0,5,0.4,9.6,1.9,13.6h-0.5
		c0.5,0.8,1.1,2,2.4,3.1c1.1,1.1,2.4,2.5,3.7,3.1c1.1,0.2,4,0.8,4,0.8c0.6,0,0.6-0.2,0.6-0.6c0-1.6,2.3-1,2.3-4
		c-0.2,0-0.2-0.5-0.6-0.5c-0.6,0-2.3,0.2-2.9,0.6c0.6-0.7,1.3-0.6,1.8-1.2h-0.5c-0.8,0-1.2,0.8-1.9,0.8c-0.6,0-0.7-0.5-1-0.8
		c-1-1.9-1-7.6-1-10.9c0-17.6,7.8-34.3,11.6-44.6c0.1-0.6,2.5-6.8,6.4-13.2c1.4-0.2,1-0.4,2.2-0.2c2.3-0.1-1.6,0,2.2-0.1
		c1.3,0.5,1.7,0,3.6,0c0.1,0,0.1,0.4,0.2,0.4c4.4,0.2,11.3,0.6,16.6,0.6c2.6,0,5.1-0.1,7.2-0.4c0.1,0.2-0.5,0.9-0.5,1.3
		c0.5,0,0.5-0.2,1-0.5c0.1-0.3,0.2-0.6,0.3-0.9c0.2,0,0.3,0,0.4-0.1c-0.3,0.3-0.5,0.6-0.8,1c0.1,0.8-0.4,1.1-1,1.4v-1
		c-1.3,0.1-0.8,1.9-1.9,1c0.5,1.6-0.7,3-1.2,4.4c1.2-0.2,0.7-2.6,2.3-3c-0.5,2.2-1.6,3.1-2.6,4.9c-0.2-1,0.5-1,0.4-1.9
		c-2.5,1.8-3.6,4.7-4.7,7.7c1.1,0.7,1.2-2.3,1.8-1.3c-0.7,1.2-0.6,2.8-2,3.1c0-0.5,0.4-0.5,0.2-1.1c-1.9,0.7-0.8,4.7-2.5,5.2
		c0,0.7,0.7,0.7,0.7,1.3c-5,9-7.2,22.3-8,34.7c-0.2-1.2-0.4-2.4-0.4-3.6c0-5.6,1.9-11.9,1.9-16.8c-1,3.7-1.9,7.4-2.2,11.6
		c-0.4,2.8-1,5.2-1.1,7.2c0,9.4,4.2,17.9,12.7,22.8c5.8,3.5,13.7,5.8,23.2,5.2c8.2-0.6,16.3-2.9,23.2-5.2
		c18.4-5.4,29-12.6,44.9-22.3c3.5-1.9,6.4-3.1,7.6-5.4c-0.6,0-0.6-1.1,0-1.1v1.1c1-0.6,2.2-1.1,2.4-2.5c0.4,0.1,0.7,0.7,1.2,0.1
		c-0.4-0.7-0.6-1.2,0.2-1.6c0.5,0,0.5,0.5,1,0.5c0.3-0.4,0.7-0.8,1-1.2c-0.1,2.2-0.3,5.1-0.3,6.9c-0.7,0.4-0.4-0.6-0.7,0
		c0.4,1,0,1.3,0.4,2.4c0.2,0.1,0.4,0,0.4,0c0.4,0.6-0.4,0.6-0.4,0.8c-0.4,1.3,0.7,2.9,0.7,4.2c0.2,1.7,0.8,2.8,1.8,4
		c0.7,0.8,1.8,2.4,2,2.4c1.8,1,4.2,0,5.2-0.8c1.7-1.9,3.2-4,4.8-6.1c1.3-1.9,10.8-11.5,12.8-12.6c1-0.8,1.2-0.8,2.2-2.3
		c0.5-0.7,1.3-0.7,2.3-1.6c1-0.8,2.2-2.3,3.4-3.4c1.2-0.7,3-2.4,4.4-3.5c0.6-0.6,1.8-0.7,2.5-0.4c-0.1,0.6,0.1,0.7,0,1.6
		c-0.4,1.6-0.7,2.4-1,3.6c-1.2,5.8-2.5,10-1.8,15.8c0.2,3.6,3,5.2,4.8,7.8c0.8,1.4,0.4,1.8,1.7,2.2c2.2,0.8,5.9,1.6,8.3,1.2
		c2.6-0.1,6.8-1.6,9-3.6c1.4-1.4,3.1-2.5,4.8-3.1c0.5-0.2,3-2.3,2.6-2.5c0.4-0.4,0.5-0.6,1.1-1.1l2.8-2.3c0.4,0.2,0.8-0.8,1.2-0.7
		c0.6-1.4,1.4-1.1,1.9-2.5c0.2-0.1-0.1-0.5-0.4-1c0.8-0.8,2.2-1.8,3-2.4c1.1-0.6,1.8-1,2.2-1.9c-0.1,0-0.6-0.2-0.5-0.2
		c0.3-0.2,0.6-0.5,0.9-0.8c-0.4,0.8-0.5,1.9-1,2.8c-1.1,2.2-1.3,4.3-1.3,6.6c0,0.4,0.6,1,0.2,1.6c-0.1,1.6,1,2.6,1.8,4l1.7,2.2
		l1,0.5c0.6,0.2,0.8,1.4,1.4,1.8c0.4,0.1,4,1.3,4.6,1.3c0.7,0,4-0.5,5-1.1c0.6,0,1-0.6,1.6-0.8c0.6-0.2,1.4-0.2,1.8-1
		c2.5-1.3,5.4-4.2,7.8-6.8c0.7-0.5,1.2-1.6,1.9-2.8c0.1-0.2,0.6,0,0.8-0.2c2.3-2.9,2.6-4.1,2.9-4.7c0-0.1,0.4-1,0.5-1.7
		c1.1,0.4,5.3,0.7,7.3,0.6c3.5-0.3,6.3-1,8.9-2.3c-0.4,1.8-0.9,4.7-1.8,6.3c0.5,0.1,0.4,0.5,0,0.6c-0.1,1.4-0.6,2.6-0.8,3.8
		c-0.2-0.1-0.2-0.7-0.4-0.7c-0.2,1-0.6,1.8-0.8,2.3c0.6,0.6,1.3,1.3,1.4,2.9c0.4,0,0.5,0,0.5,0.2c-0.4,1,0.8,1.3,1.2,1.7
		c1.3,1.3,0.7,1.4,2.5,2c0.4,1,2.5,1.4,3.4,1c0,0-0.2-0.7,0-1c0.8,0,0.4,0,0.4-0.8c0.4-1.1,1.2-1.7,1.4-3c-0.2,0-0.4,0-0.4-0.1
		c0.4-0.4,0.1-1,0.6-1.2c0.1,0.4-0.2,0.6,0.1,0.7c0.8-0.5-0.2-2.8,1.1-1.8c0-1.1,1.3-1.9,1.2-3c0,0.5-0.6,1.1-0.7,0.6
		c1.9-4.1,3.2-6.1,6.2-9.4c0.4-0.4,0.5,0,0.8,0c0-1,1.2-1.2,1-2.4c1.7-1.6,3.2-2.8,4.1-4c1.2-0.4,1.7-1.1,2.3-2
		c2.4-1.8,4.9-3.4,8.3-4.9c2.2-1.3,5.5-1.9,8.4-2c1.2,0.2,3.4,1.3,4.4,0.8c0.4-0.1,0.1-0.8,0.4-1.1
		C701.3,228.3,699.8,226.6,699.1,226.1 M569.6,198.3c-0.7-0.5,0.5-1.4,0.8-1.8C570.5,197.3,569.6,197.3,569.6,198.3 M567.7,197.3
		c0-1.4,1.4-3.2,2.4-4.2C569.6,194.9,568.9,195.9,567.7,197.3 M573.1,189.3c1.2-3.8,4-7.2,5.8-10.8
		C578,182.1,575.3,185.4,573.1,189.3 M546.1,199.1c0,0.5,0.4,0.5,0.4,0.5c0,0.8-0.4,1.8-0.8,1.8C545.9,199.8,545,200.4,546.1,199.1
		 M546.5,215.9c1.7-3.6,4.4-9.2,7-13.8c1.2-2.5,2.5-5.3,3.8-8c0.5-1.4,1.4-2.3,1.6-3.5v-1c0.2-0.7,1.4-1.6,1.9-2.4
		c0.5-0.7,0.5-1.8,0.5-2.2c1.2-3.6,4.4-7.2,6.5-10.8c1.2-1.7,2.8-3.2,4-5c0.4-1,0-1.8,1.4-2.2c-0.5-0.5,0-1,0-1.4
		c1.2-1,3.8-3,5.5-3.8c0.8,1.3,1.1,2.9,1.1,4.6c0,2-0.5,4.2-1.1,6.2c0,0.2-0.6,0.6-1.1,1.3c-0.6,1.2-0.6,2.9-1.1,4
		c-0.4,1.4-1.2,2.5-1.6,3.7c0.7-0.6,1.2-1.6,1.6-3.1c1.6,1.9-1.6,3.1-1.2,5.2c-1.4,0-1.4,1.8-1.8,2.9h-0.8v1.1c-0.6,0.5-1,0.5-1,1.3
		c-0.4,0-0.4,0.7-0.8,1.2c-0.4,0.7-0.5,1.3-1.2,2.5c-1.1,1.7-2.5,4.2-3.6,6c-0.7-1.3-1.3,2.8-3.6,3c0.5,0.5-0.5,0.5-0.5,1.4
		c-0.7,0-1.2,1-1.7,1.3c0,0.5,0-0.4,1,0c-0.5,0.8-1.2,0-2.2,1.2h1c0.2,0.5-1,0.5-1,1.1c-0.8-1.1-1.8,2-3.1,2.8
		c-0.5-0.7,1.3-1.2,1.3-1.9c-0.8,0.7-3.1,2.4-2.6,4.3c-0.7,0.5-0.7-0.7-1.2,0.5c0.7,0-0.7,1.4-2.1,2.2c-0.9,0.5-3.7,2.4-3.9,4.5
		c-0.5-0.6-3.1,1.2-3.6,2.2C544.3,220.2,546.1,217.2,546.5,215.9 M541.4,209.2c0,0.7,0,1.2-0.6,1.2
		C540.1,210.4,540.5,208.8,541.4,209.2 M538.9,214c-0.5,0-0.5-0.6-0.5-0.6C539.1,212.8,538.9,213.4,538.9,214 M503.7,165.5
		c-0.5-0.1-1-0.6-1.1-1.4C503.3,164.4,503.7,164.7,503.7,165.5 M445.5,178.7c-0.4,0.6-0.8,0.7-1,1.7
		C443.7,179.7,444.9,178.7,445.5,178.7 M342.3,197.8c0.7-0.4,1-0.7,1.4-1.1C343.5,197.3,343.1,197.7,342.3,197.8 M344.1,196.2
		c0-0.1,0.7-0.4,1.3-0.4C345.1,196.1,344.1,196.6,344.1,196.2 M372.3,245.9c0,0.1-0.6,0.4-0.6,0
		C371.7,245.1,372.3,245.4,372.3,245.9 M372.3,247c0,0-0.5-0.5-0.6-0.5c0.1-0.1,0.7-0.1,0.7,0.1C372.5,246.9,372.5,247,372.3,247
		 M427.9,195.4c0.9,0,1.6,0.3,2.5,0.4c-0.1,0.2-0.3,0.4-0.4,0.5c-0.2,0.1-0.4,0.1-0.7,0.1c-1,0-2-0.4-2.8-0.6
		C427.1,195.5,427.3,195.4,427.9,195.4 M427.3,197.2c0.2-0.5,1.4,0.1,1.7,0.1C428.3,197.3,427.8,197.2,427.3,197.2 M431.7,195.6
		c0.2-0.1,0.4-0.2,0.7-0.2c0.1,0,0.1,0,0.1,0c-0.3,0.3-0.5,0.7-0.8,1c-0.2-0.1-0.3-0.2-0.5-0.2C431.4,196,431.5,195.8,431.7,195.6
		 M430.8,197.3c0.1,0,0.1,0,0.2,0c0,0-0.1,0.1-0.1,0.1C430.8,197.4,430.8,197.4,430.8,197.3 M420.9,215.4c-0.4,0-0.4-0.6-0.4-0.7
		C421.7,214.2,421.1,215.2,420.9,215.4 M419.7,217.1c0.7-0.5,0.7,1.3,0,1V217.1z M506.4,252.9v-1h0.7
		C507.1,252.5,506.9,252.9,506.4,252.9 M510.5,250.2c0-0.2,0.7-0.4,0.8-0.8c0.2,0.1,0,0.6,0.2,0.8H510.5z M512.5,248.9
		c0,0,0.5-0.6,0.8-0.5C513.5,248.9,512.3,249.4,512.5,248.9 M516,247c-0.7-0.4,1-1.2,1.3-1.2C517.5,246.9,516.1,246.5,516,247
		 M609.8,243.4c0.4-0.4,0.4-0.4,0.6-0.4C610.3,243,610.9,244,609.8,243.4 M610.1,242.1c0,0,0,0.1,0,0.1c-0.1,0-0.2,0.1-0.3,0.1
		C610,242.2,610.1,242.1,610.1,242.1 M608.5,253.1c0-0.2,0.1-1.2-0.5-1.2v2.4c-1.2-1.8-0.2-3.5-0.1-5c0.2,0.1,0.6,0.1,0.8,0.6
		C609,250.8,609.3,252.9,608.5,253.1 M608.7,248.2c-0.1-0.4,0-1.7,1.1-1.9c-0.5-0.4-1.1,0.2-1.1,0.6c-0.2-0.8,0.6-1.7,1.1-2.2
		c0.4,0-0.5,0.5,0,0.7c0.6-0.6,0.6-0.8,1.1-1.2C610.2,245.9,609.8,246.9,608.7,248.2 M610.9,244c-0.5-0.5,0.2-1.1,0.2-1.6
		C612,242.9,610.9,243.4,610.9,244 M610.9,241.7c0.1-0.2,0.1-0.4,0.2-0.6c0.2-0.2,0.4-0.4,0.5-0.6c0,0,0.1,0,0.1,0.1
		C611.4,241,611.4,241.7,610.9,241.7 M612,242.2c-0.2,0,0-1.6,0.6-1.7C612.8,239.9,612.2,241.7,612,242.2 M612.2,239.1
		c0-0.2,0-0.3,0-0.4c0,0,0.1-0.1,0.1-0.1c0-0.1,0-0.1,0-0.2c0.2-0.3,0.4-0.4,0.5-0.5C612.8,237.9,612.7,239.1,612.2,239.1
		 M613.8,235.2c-0.8,0,0.1-0.6,0-0.8C614.5,234.6,613.8,234.9,613.8,235.2 M614.4,235.5c-0.6-0.2,0.1-0.6,0.1-0.8
		C615,234.6,614.4,235.2,614.4,235.5 M620.4,254.9c-0.4-0.2,0.2-1.1,1-0.8C621.3,254.7,620.4,254.3,620.4,254.9 M630.9,243.3
		c0.2,0.1-1.9,1-0.4,1.4c-1.7,1.8-3,4.2-4.7,5.8c-0.5,0.6-1.7,1.2-2.5,2c-1.7,1.7-0.6,1.2-1.7,1.1c0.6-0.5,0.5-0.5,0.6-1.7
		c-1,0.6-1.7,1.8-2.5,2.4c-0.2,0.6-1.1,0.4-1.7,0.4c-0.6,0.2-1.2,0.6-1.9,0.6c0.4-0.4,0.4-1,0.4-1.2c-0.4-0.4-0.4-1.8,0-3.2
		c0.4-0.6,0.4-0.7,0.5-1.4c1-1.3,3.6-8.4,4.3-9.1c0.4-0.4,0.8-0.4,1-1.4c1.3-2.2,3-4.8,4.8-5.4c1.7-0.1,3.2,3.4,3.8,5
		C631.3,240,630.3,242.7,630.9,243.3 M631.2,242.7c-0.4-0.2,0.4-1.7,0.4-2.4C632.4,241,631.2,242.2,631.2,242.7"/>
	<path class="st0" d="M676.2,228.3c0,0,0.1,0,0.1,0C676.2,228.3,676.2,228.3,676.2,228.3"/>
</g>
<path class="st1" d="M424.2,98.2c-0.5-2.1-1.4-4.2-2.9-6c-1.8-2.2-4.2-3.9-7.2-4.9c-2.3-0.8-4.6-1.3-7.1-1.7
	c-2.2-0.3-4.4-0.4-6.6-0.3c-2.4,0.1-4.8,0.4-7.1,1c-2.5,0.6-4.9,1.4-7.2,2.4c-2.9,1.3-5.5,2.9-7.8,4.8c-2.2,1.8-10,10.1-14,14.3
	c-7.2,6.9-12.6-8.5-14.5-11.9c-2.4-4.1-5.1-8-8.7-11.6c-2.5-2.5-5.3-4.7-8.6-6.5c-3.2-1.7-6.6-2.8-10.4-3.3c-3-0.4-6-0.4-9,0
	c-3.5,0.4-6.8,1.2-10,2.4c-5,1.9-8.6,5-10.6,9.2c-1,2.1-1.6,4.2-1.9,6.5c-0.5,3.9-0.1,7.7,0.7,11.6c0.6,3.1,1.6,6.2,2.6,9.3
	c0.6,1.8,1.4,3.7,2.2,5.5c1.1,2.4,2.2,4.9,3.4,7.3c1.3,2.6,2.7,5.1,4.2,7.6c2,3.4,4.2,6.8,6.4,10.1c1.5,2.2,3.1,4.4,4.8,6.5
	c1.7,2.2,3.6,4.3,5.4,6.5c2.1,2.4,4.3,4.7,6.5,7c1.2,1.2,2.4,2.4,3.6,3.6c2.6,2.4,5,4.8,7.8,7.1c2.4,2,5.1,3.8,7.7,5.7
	c4,2.5,8.3,0.4,10.3-0.5c4.5-2,9-4,13.2-6.5c2-1.2,3.9-2.3,5.8-3.6c2.2-1.5,4.3-3.1,6.4-4.6c2-1.5,3.9-2.9,5.8-4.4
	c2.2-1.7,4.3-3.4,6.4-5.2c4-3.5,7.9-7.1,11.4-10.9c1.6-1.8,3.3-3.6,4.8-5.5c2.5-3.1,4.8-6.2,6.7-9.6c1.7-2.9,3.2-5.9,4.7-8.9
	c1.1-2.2,1.9-4.5,2.5-6.8c0.6-2.2,1-4.5,1.1-6.8C425,103.8,424.8,101,424.2,98.2 M398.1,117.6c-9,17.4-32.5,46.4-44,47.4
	c-21.7,1.8-39.5-51.1-34.8-63.2c0.3-0.8,0.9-1.2,1.7-0.6c6.5,4.7,13.7,23,26.1,24.7c2.7,0.4,8.6-1.8,10.9-1.4c2.3,0.4,5,3.3,9.2,3.1
	c22-1.7,19.7-8.1,30.2-10.8C398,116.6,398.4,117.1,398.1,117.6"/>
</svg>
